<svg xmlns="http://www.w3.org/2000/svg" width="18" height="19" fill="none" viewBox="0 0 18 19"><path fill="#fff" d="M1.06569 13.1508C3.22358 17.6393 8.86644 19.2715 13.2631 16.9776C13.6087 16.7865 13.7594 16.3674 13.5682 15.9851C13.3771 15.6395 12.958 15.4888 12.5757 15.68C8.9032 17.5915 4.21613 16.2277 2.4038 12.5075C-0.000390106 7.57041 3.10227 3.80605 5.61674 2.4128C9.03922 0.512238 13.3807 1.77315 15.4541 5.01182L12.9065 4.47878C12.5242 4.40158 12.1051 4.63318 12.0279 5.05226C11.9507 5.43458 12.1823 5.85366 12.6014 5.93086L17.1157 6.84989C17.873 6.92341 18.0347 6.23965 17.9943 6.00805L17.4208 1.457C17.384 1.07469 17.0752 0.806328 16.6929 0.806328C16.2224 0.806328 15.9283 1.26584 15.9651 1.68492L16.1856 3.54137C14.0755 0.938668 9.92517 -1.28171 4.88519 1.03425C2.74936 2.13709 -2.1546 6.4639 1.06569 13.1508Z"/></svg>